<svg xmlns="http://www.w3.org/2000/svg" xmlns:xlink="http://www.w3.org/1999/xlink" aria-hidden="true" role="img" class="iconify iconify--logos" width="31.88" height="32" preserveAspectRatio="xMidYMid meet" viewBox="0 0 256 257"><path fill="#F7DF1E" d="M0 0h256v256H0V0z"></path><path d="M121.696 192.705c0 1.638-.01 3.275-.01 4.913c0 15.991-9.892 27.387-27.277 27.387c-9.303 0-17.94-3.674-23.59-10.456c-3.882-4.656-6.072-10.597-6.072-16.75h15.638c0 6.968 4.012 11.604 11.28 11.604c6.32 0 10.34-3.03 10.34-10.113v-74.675h19.702v71.49h-.011zm51.724-74.675c23.015 0 39.008 15.539 39.008 37.061c0 21.523-14.94 37.21-39.008 37.21c-18.061 0-30.69-8.413-35.341-20.946h15.001c4.002 8.005 11.3 11.751 20.34 11.751c13.3 0 23.743-7.443 23.743-26.705c0-16.636-10.442-26.705-23.743-26.705c-9.932 0-16.52 5.161-20.151 12.405h-15.001c3.842-26.046 20.501-37.401 35.152-37.401z"></path></svg>
